<svg width="40" height="40" viewBox="0 0 40 40" fill="none" xmlns="http://www.w3.org/2000/svg">
<path d="M6.66927 35.0002C5.7526 35.0002 4.96788 34.6738 4.3151 34.021C3.66233 33.3682 3.33594 32.5835 3.33594 31.6668V13.3335C3.33594 12.4168 3.66233 11.6321 4.3151 10.9793C4.96788 10.3266 5.7526 10.0002 6.66927 10.0002H13.3359V6.66683C13.3359 5.75016 13.6623 4.96544 14.3151 4.31266C14.9679 3.65988 15.7526 3.3335 16.6693 3.3335H23.3359C24.2526 3.3335 25.0373 3.65988 25.6901 4.31266C26.3429 4.96544 26.6693 5.75016 26.6693 6.66683V10.0002H33.3359C34.2526 10.0002 35.0373 10.3266 35.6901 10.9793C36.3429 11.6321 36.6693 12.4168 36.6693 13.3335V31.6668C36.6693 32.5835 36.3429 33.3682 35.6901 34.021C35.0373 34.6738 34.2526 35.0002 33.3359 35.0002H6.66927ZM16.6693 10.0002H23.3359V6.66683H16.6693V10.0002ZM33.3359 25.0002H25.0026V28.3335H15.0026V25.0002H6.66927V31.6668H33.3359V25.0002ZM18.3359 25.0002H21.6693V21.6668H18.3359V25.0002ZM6.66927 21.6668H15.0026V18.3335H25.0026V21.6668H33.3359V13.3335H6.66927V21.6668Z" fill="#4080FF"/>
</svg>
