<svg width="40" height="40" viewBox="0 0 40 40" fill="none" xmlns="http://www.w3.org/2000/svg">
<path d="M20.0026 13.3335L11.6693 21.6668L14.0026 24.0002L18.3359 19.7085V36.6668H21.6693V19.7085L26.0026 24.0002L28.3359 21.6668L20.0026 13.3335ZM6.08594 29.1668C5.19705 27.8057 4.51649 26.3474 4.04427 24.7918C3.57205 23.2363 3.33594 21.639 3.33594 20.0002C3.33594 17.6946 3.77344 15.5279 4.64844 13.5002C5.52344 11.4724 6.71094 9.7085 8.21094 8.2085C9.71094 6.7085 11.4748 5.521 13.5026 4.646C15.5304 3.771 17.697 3.3335 20.0026 3.3335C22.3082 3.3335 24.4748 3.771 26.5026 4.646C28.5304 5.521 30.2943 6.7085 31.7943 8.2085C33.2943 9.7085 34.4818 11.4724 35.3568 13.5002C36.2318 15.5279 36.6693 17.6946 36.6693 20.0002C36.6693 21.639 36.4332 23.2363 35.9609 24.7918C35.4887 26.3474 34.8082 27.8057 33.9193 29.1668L31.5026 26.7502C32.1137 25.7224 32.572 24.639 32.8776 23.5002C33.1832 22.3613 33.3359 21.1946 33.3359 20.0002C33.3359 16.2779 32.0443 13.1252 29.4609 10.5418C26.8776 7.9585 23.7248 6.66683 20.0026 6.66683C16.2804 6.66683 13.1276 7.9585 10.5443 10.5418C7.96094 13.1252 6.66927 16.2779 6.66927 20.0002C6.66927 21.1946 6.82205 22.3613 7.1276 23.5002C7.43316 24.639 7.89149 25.7224 8.5026 26.7502L6.08594 29.1668Z" fill="#ED4F4F"/>
</svg>
