<svg width="40" height="40" viewBox="0 0 40 40" fill="none" xmlns="http://www.w3.org/2000/svg">
<path d="M15.3307 26.0002L19.9974 22.5002L24.5807 26.0002L22.8307 20.3335L27.4974 16.6668H21.8307L19.9974 11.0002L18.1641 16.6668H12.4974L17.0807 20.3335L15.3307 26.0002ZM19.9974 36.6668C16.1363 35.6946 12.9488 33.4793 10.4349 30.021C7.92101 26.5627 6.66406 22.7224 6.66406 18.5002V8.3335L19.9974 3.3335L33.3307 8.3335V18.5002C33.3307 22.7224 32.0738 26.5627 29.5599 30.021C27.046 33.4793 23.8585 35.6946 19.9974 36.6668ZM19.9974 33.1668C22.8863 32.2502 25.2752 30.4168 27.1641 27.6668C29.053 24.9168 29.9974 21.8613 29.9974 18.5002V10.6252L19.9974 6.87516L9.9974 10.6252V18.5002C9.9974 21.8613 10.9418 24.9168 12.8307 27.6668C14.7196 30.4168 17.1085 32.2502 19.9974 33.1668Z" fill="#4080FF"/>
</svg>
