<svg width="40" height="40" viewBox="0 0 40 40" fill="none" xmlns="http://www.w3.org/2000/svg">
<path d="M20.4583 25.8752C22.4028 25.8752 24.0556 25.2502 25.4167 24.0002C26.7778 22.7502 27.4583 21.2363 27.4583 19.4585C27.4583 17.8752 26.9514 16.5349 25.9375 15.4377C24.9236 14.3404 23.6944 13.7918 22.25 13.7918C20.9444 13.7918 19.8403 14.2085 18.9375 15.0418C18.0347 15.8752 17.5833 16.9029 17.5833 18.1252C17.5833 18.6529 17.6875 19.1668 17.8958 19.6668C18.1042 20.1668 18.4028 20.6252 18.7917 21.0418L21.1667 18.6668C21.0833 18.6113 21.0208 18.5418 20.9792 18.4585C20.9375 18.3752 20.9167 18.2779 20.9167 18.1668C20.9167 17.8613 21.0417 17.6182 21.2917 17.4377C21.5417 17.2571 21.8611 17.1668 22.25 17.1668C22.8056 17.1668 23.2639 17.396 23.625 17.8543C23.9861 18.3127 24.1667 18.8613 24.1667 19.5002C24.1667 20.3613 23.8125 21.0904 23.1042 21.6877C22.3958 22.2849 21.5278 22.5835 20.5 22.5835C19.1944 22.5835 18.0903 22.0557 17.1875 21.0002C16.2847 19.9446 15.8333 18.6529 15.8333 17.1252C15.8333 16.3196 15.9861 15.5488 16.2917 14.8127C16.5972 14.0766 17.0278 13.4307 17.5833 12.8752L15.2083 10.5002C14.3194 11.3613 13.6389 12.3613 13.1667 13.5002C12.6944 14.6391 12.4583 15.8335 12.4583 17.0835C12.4583 19.5279 13.2361 21.6043 14.7917 23.3127C16.3472 25.021 18.2361 25.8752 20.4583 25.8752ZM10 36.6668V29.5002C8.41667 28.0557 7.1875 26.3682 6.3125 24.4377C5.4375 22.5071 5 20.4724 5 18.3335C5 14.1668 6.45833 10.6252 9.375 7.7085C12.2917 4.79183 15.8333 3.3335 20 3.3335C23.4722 3.3335 26.5486 4.35433 29.2292 6.396C31.9097 8.43766 33.6528 11.0974 34.4583 14.3752L36.625 22.9168C36.7639 23.4446 36.6667 23.9238 36.3333 24.3543C36 24.7849 35.5556 25.0002 35 25.0002H31.6667V30.0002C31.6667 30.9168 31.3403 31.7015 30.6875 32.3543C30.0347 33.0071 29.25 33.3335 28.3333 33.3335H25V36.6668H21.6667V30.0002H28.3333V21.6668H32.8333L31.25 15.2085C30.6111 12.6807 29.25 10.6252 27.1667 9.04183C25.0833 7.4585 22.6944 6.66683 20 6.66683C16.7778 6.66683 14.0278 7.79183 11.75 10.0418C9.47222 12.2918 8.33333 15.0279 8.33333 18.2502C8.33333 19.9168 8.67361 21.5002 9.35417 23.0002C10.0347 24.5002 11 25.8335 12.25 27.0002L13.3333 28.0002V36.6668H10Z" fill="#4080FF"/>
</svg>
