<svg width="32" height="32" viewBox="0 0 32 32" fill="none" xmlns="http://www.w3.org/2000/svg">
<path d="M10.4641 28.1665C8.15295 27.0998 6.27517 25.4887 4.83073 23.3332C3.38628 21.1776 2.66406 18.7443 2.66406 16.0332C2.66406 15.4554 2.69184 14.8887 2.7474 14.3332C2.80295 13.7776 2.8974 13.2332 3.03073 12.6998L1.4974 13.5998L0.164062 11.2998L6.53073 7.63317L10.1974 13.9665L7.86406 15.2998L6.06406 12.1665C5.81962 12.7665 5.63628 13.3887 5.51406 14.0332C5.39184 14.6776 5.33073 15.3443 5.33073 16.0332C5.33073 18.1887 5.91962 20.1498 7.0974 21.9165C8.27517 23.6832 9.84184 24.9887 11.7974 25.8332L10.4641 28.1665ZM20.6641 11.9998V9.33317H24.2974C23.2752 8.0665 22.0418 7.08317 20.5974 6.38317C19.153 5.68317 17.6196 5.33317 15.9974 5.33317C14.7752 5.33317 13.6196 5.52206 12.5307 5.89984C11.4418 6.27762 10.4418 6.81095 9.53073 7.49984L8.1974 5.1665C9.30851 4.38873 10.5196 3.77762 11.8307 3.33317C13.1418 2.88873 14.5307 2.6665 15.9974 2.6665C17.753 2.6665 19.4307 2.99428 21.0307 3.64984C22.6307 4.30539 24.0641 5.25539 25.3307 6.49984V4.6665H27.9974V11.9998H20.6641ZM19.7974 31.9998L13.4307 28.3332L17.0974 21.9998L19.3974 23.3332L17.4974 26.5998C20.1196 26.2221 22.303 25.0332 24.0474 23.0332C25.7918 21.0332 26.6641 18.6887 26.6641 15.9998C26.6641 15.7554 26.6585 15.5276 26.6474 15.3165C26.6363 15.1054 26.6085 14.8887 26.5641 14.6665H29.2641C29.2863 14.8887 29.3029 15.1054 29.3141 15.3165C29.3252 15.5276 29.3307 15.7554 29.3307 15.9998C29.3307 18.9998 28.4363 21.6832 26.6474 24.0498C24.8585 26.4165 22.5307 28.0109 19.6641 28.8332L21.1307 29.6998L19.7974 31.9998Z" fill="#4080FF"/>
</svg>
