<svg width="32" height="32" viewBox="0 0 32 32" fill="none" xmlns="http://www.w3.org/2000/svg">
<path d="M5.33073 29.3335V14.6668H2.66406V6.66683H9.5974C9.48628 6.46683 9.41406 6.25572 9.38073 6.0335C9.3474 5.81127 9.33073 5.57794 9.33073 5.3335C9.33073 4.22239 9.71962 3.27794 10.4974 2.50016C11.2752 1.72238 12.2196 1.3335 13.3307 1.3335C13.8418 1.3335 14.3196 1.42794 14.7641 1.61683C15.2085 1.80572 15.6196 2.06683 15.9974 2.40016C16.3752 2.04461 16.7863 1.77794 17.2307 1.60016C17.6752 1.42238 18.153 1.3335 18.6641 1.3335C19.7752 1.3335 20.7196 1.72238 21.4974 2.50016C22.2752 3.27794 22.6641 4.22239 22.6641 5.3335C22.6641 5.57794 22.6418 5.80572 22.5974 6.01683C22.553 6.22794 22.4863 6.44461 22.3974 6.66683H29.3307V14.6668H26.6641V29.3335H5.33073ZM17.7141 4.3835C17.4585 4.63905 17.3307 4.95572 17.3307 5.3335C17.3307 5.71127 17.4585 6.02794 17.7141 6.2835C17.9696 6.53905 18.2863 6.66683 18.6641 6.66683C19.0418 6.66683 19.3585 6.53905 19.6141 6.2835C19.8696 6.02794 19.9974 5.71127 19.9974 5.3335C19.9974 4.95572 19.8696 4.63905 19.6141 4.3835C19.3585 4.12794 19.0418 4.00016 18.6641 4.00016C18.2863 4.00016 17.9696 4.12794 17.7141 4.3835ZM11.9974 5.3335C11.9974 5.71127 12.1252 6.02794 12.3807 6.2835C12.6363 6.53905 12.953 6.66683 13.3307 6.66683C13.7085 6.66683 14.0252 6.53905 14.2807 6.2835C14.5363 6.02794 14.6641 5.71127 14.6641 5.3335C14.6641 4.95572 14.5363 4.63905 14.2807 4.3835C14.0252 4.12794 13.7085 4.00016 13.3307 4.00016C12.953 4.00016 12.6363 4.12794 12.3807 4.3835C12.1252 4.63905 11.9974 4.95572 11.9974 5.3335ZM5.33073 9.3335V12.0002H14.6641V9.3335H5.33073ZM14.6641 26.6668V14.6668H7.9974V26.6668H14.6641ZM17.3307 26.6668H23.9974V14.6668H17.3307V26.6668ZM26.6641 12.0002V9.3335H17.3307V12.0002H26.6641Z" fill="#31E06F"/>
</svg>
