<svg width="40" height="40" viewBox="0 0 40 40" fill="none" xmlns="http://www.w3.org/2000/svg">
<path d="M10.0026 35C8.7526 35 7.51649 34.6945 6.29427 34.0834C5.07205 33.4722 4.08594 32.6667 3.33594 31.6667C4.05816 31.6667 4.79427 31.382 5.54427 30.8125C6.29427 30.2431 6.66927 29.4167 6.66927 28.3334C6.66927 26.9445 7.15538 25.7639 8.1276 24.7917C9.09983 23.8195 10.2804 23.3334 11.6693 23.3334C13.0582 23.3334 14.2387 23.8195 15.2109 24.7917C16.1832 25.7639 16.6693 26.9445 16.6693 28.3334C16.6693 30.1667 16.0165 31.7361 14.7109 33.0417C13.4054 34.3472 11.8359 35 10.0026 35ZM10.0026 31.6667C10.9193 31.6667 11.704 31.3403 12.3568 30.6875C13.0095 30.0347 13.3359 29.25 13.3359 28.3334C13.3359 27.8611 13.1762 27.4653 12.8568 27.1459C12.5373 26.8264 12.1415 26.6667 11.6693 26.6667C11.197 26.6667 10.8012 26.8264 10.4818 27.1459C10.1623 27.4653 10.0026 27.8611 10.0026 28.3334C10.0026 28.9722 9.92621 29.5556 9.77344 30.0834C9.62066 30.6111 9.41927 31.1111 9.16927 31.5834C9.30816 31.6389 9.44705 31.6667 9.58594 31.6667H10.0026ZM19.5859 25L15.0026 20.4167L29.9193 5.50002C30.2248 5.19446 30.6068 5.03474 31.0651 5.02085C31.5234 5.00696 31.9193 5.16669 32.2526 5.50002L34.5026 7.75002C34.8359 8.08335 35.0026 8.47224 35.0026 8.91669C35.0026 9.36113 34.8359 9.75002 34.5026 10.0834L19.5859 25Z" fill="#4080FF"/>
</svg>
